<svg width="40" height="40" viewBox="0 0 40 40" fill="none" xmlns="http://www.w3.org/2000/svg">
<path fill-rule="evenodd" clip-rule="evenodd" d="M31.2504 17.5002L31.2395 17.9048L31.2504 18.3335L31.2402 18.7388L31.2504 19.1668L31.2405 19.575L31.2504 20.0002L30.9797 31.8385C30.9155 34.6473 28.7792 36.9733 25.986 37.2758C22.007 37.7067 17.993 37.7067 14.014 37.2758C11.2208 36.9733 9.08451 34.6473 9.02031 31.8385L8.74966 20.0002L8.75945 19.5722L8.7497 19.1668L8.75996 18.7405L8.74961 18.3335L8.76046 17.9067L8.74951 17.5002L9.02286 7.33692C9.02668 7.19512 9.03664 7.05478 9.05251 6.9162L9.05873 6.8576L9.06366 6.81036C9.19801 5.43686 9.95914 4.23893 11.0683 3.52005C11.1511 3.46502 11.2358 3.4126 11.3223 3.36293C11.407 3.31285 11.4933 3.26535 11.5814 3.22053C12.1257 2.93327 12.7332 2.74707 13.3799 2.68753C17.784 2.28213 22.216 2.28213 26.62 2.68755C27.2657 2.74697 27.8724 2.93267 28.416 3.21917C28.504 3.26392 28.5904 3.31135 28.675 3.36137C28.7644 3.41252 28.8517 3.4666 28.9369 3.52345C30.0402 4.24073 30.798 5.43245 30.9352 6.79903L30.9482 6.92287C30.9637 7.0593 30.9734 7.1974 30.977 7.33692L31.2504 17.5002ZM28.457 7.20128L28.7187 18.6457L28.5067 26.5295C28.459 28.3017 27.0939 29.7585 25.3284 29.921C21.7835 30.2474 18.2164 30.2474 14.6716 29.921C12.9061 29.7585 11.5409 28.3017 11.4933 26.5295L11.2813 18.6467L11.5429 7.20128C11.5435 7.17665 11.5445 7.15213 11.546 7.12773C11.6451 6.45727 12.0337 5.87853 12.5846 5.52708C12.7933 5.41828 13.0248 5.34613 13.2712 5.31946C17.744 4.83508 22.256 4.83508 26.7289 5.31946C26.975 5.34613 27.2065 5.41823 27.4152 5.52695C27.9664 5.87848 28.355 6.4575 28.454 7.12828C28.4555 7.15252 28.4565 7.17685 28.457 7.20128ZM20 36.1668C21.3807 36.1668 22.5 35.0475 22.5 33.6668C22.5 32.286 21.3807 31.1668 20 31.1668C18.6194 31.1668 17.5 32.286 17.5 33.6668C17.5 35.0475 18.6194 36.1668 20 36.1668Z" fill="#836FFF"/>
</svg>
